<?xml version="1.0" encoding="utf-8"?>
<!-- Generator: Adobe Illustrator 15.1.0, SVG Export Plug-In . SVG Version: 6.00 Build 0)  -->
<!DOCTYPE svg PUBLIC "-//W3C//DTD SVG 1.1//EN" "http://www.w3.org/Graphics/SVG/1.1/DTD/svg11.dtd">
<svg version="1.1" id="Layer_1" xmlns="http://www.w3.org/2000/svg" xmlns:xlink="http://www.w3.org/1999/xlink" x="0px" y="0px"
	 width="171px" height="46px" viewBox="0 0 171 46" enable-background="new 0 0 171 46" xml:space="preserve">
<g>
	<g>
		<path fill="#7D7D7C" d="M25.371,33.674c-0.462-0.866-0.693-1.212-1.271-1.675c-0.867-0.75-1.963-1.098-3.292-1.098
			c-3.061,0-5.14,2.079-5.14,5.142c0,3.061,2.137,5.197,5.14,5.197c1.271,0,2.425-0.404,3.35-1.155
			c0.577-0.463,0.808-0.809,1.443-1.791l1.04,0.463c-0.693,1.098-0.981,1.501-1.675,2.079c-1.155,0.982-2.425,1.385-4.101,1.385
			c-3.754,0-6.468-2.541-6.468-6.12c0-3.639,2.714-6.296,6.468-6.296c1.501,0,2.772,0.405,3.812,1.212
			c0.751,0.578,1.097,0.982,1.733,2.021L25.371,33.674L25.371,33.674z"/>
		<path fill="#7D7D7C" d="M36.805,37.833c0,2.077-1.386,3.407-3.696,3.407c-2.31,0-3.695-1.271-3.695-3.349
			c0-2.081,1.386-3.409,3.695-3.409C35.419,34.482,36.805,35.753,36.805,37.833L36.805,37.833z M38.076,37.833
			c0-2.599-1.964-4.332-4.968-4.332c-3.003,0-4.966,1.733-4.966,4.332c0,2.655,1.963,4.331,4.966,4.331
			C36.112,42.221,38.076,40.488,38.076,37.833L38.076,37.833z"/>
		<path fill="#7D7D7C" d="M48.009,41.875v-4.101c0-1.386-0.173-2.021-0.751-2.483c-0.577-0.463-1.385-0.693-2.541-0.693
			c-1.271,0-2.311,0.346-2.946,0.982c-0.462,0.403-0.635,0.981-0.635,1.849v4.505h-1.04v-8.087h1.04v1.097
			c0.461-0.461,0.693-0.691,1.212-0.924c0.693-0.288,1.501-0.461,2.484-0.461c1.617,0,2.887,0.52,3.581,1.445
			c0.462,0.576,0.635,1.27,0.635,2.309v4.678h-1.039V41.875z"/>
		<path fill="#7D7D7C" d="M58.52,35.695c-0.346-0.809-1.386-1.213-3.176-1.213c-1.906,0-2.887,0.521-2.887,1.445
			c0,0.749,0.462,0.979,1.963,1.039l2.137,0.115c2.311,0.115,3.408,0.864,3.408,2.367c0,1.732-1.617,2.715-4.332,2.715
			c-2.483,0-4.1-0.752-4.621-2.254l1.097-0.173c0.404,0.693,0.694,0.924,1.444,1.157c0.635,0.23,1.271,0.287,2.021,0.287
			c1.963,0,3.176-0.636,3.176-1.675c0-0.867-0.578-1.213-2.079-1.328l-2.311-0.115c-2.079-0.117-3.003-0.751-3.003-2.136
			c0-1.617,1.387-2.427,4.042-2.427c1.675,0,2.888,0.346,3.639,0.981c0.289,0.289,0.462,0.461,0.693,0.924L58.52,35.695
			L58.52,35.695z"/>
		<path fill="#7D7D7C" d="M62.909,32.462h-1.04V30.96h1.04V32.462L62.909,32.462z M62.909,41.875h-1.04v-8.028h1.04V41.875
			L62.909,41.875z"/>
		<path fill="#7D7D7C" d="M66.201,37.833c0-1.965,1.559-3.351,3.638-3.351c2.137,0,3.465,1.271,3.465,3.409
			c0,2.136-1.27,3.349-3.581,3.349C67.529,41.24,66.201,39.91,66.201,37.833L66.201,37.833z M73.304,30.21v4.677
			c-0.462-0.461-0.692-0.635-1.097-0.867c-0.694-0.346-1.444-0.519-2.369-0.519c-2.83,0-4.85,1.79-4.85,4.391
			c0,2.597,1.848,4.272,4.677,4.272c0.867,0,1.617-0.174,2.368-0.463c0.578-0.289,0.808-0.461,1.27-0.925v1.099h1.04V30.21H73.304
			L73.304,30.21z"/>
		<path fill="#7D7D7C" d="M84.334,37.14h-6.756c0.404-1.849,1.501-2.772,3.292-2.772C82.718,34.367,83.989,35.406,84.334,37.14
			L84.334,37.14z M85.664,38.063c-0.059-0.981-0.172-1.329-0.521-2.021c-0.75-1.561-2.367-2.542-4.272-2.542
			c-2.6,0-4.447,1.733-4.447,4.215c0,2.657,1.963,4.448,4.851,4.448c1.964,0,3.35-0.693,4.39-2.31l-0.866-0.636
			c-0.405,0.636-0.579,0.866-0.982,1.212c-0.693,0.521-1.56,0.81-2.599,0.81c-1.271,0-2.31-0.464-2.946-1.213
			c-0.403-0.521-0.519-0.924-0.635-1.964H85.664L85.664,38.063z"/>
		<path fill="#7D7D7C" d="M88.725,33.847v1.157c0.635-0.693,1.211-1.039,2.021-1.215c0.463-0.115,0.924-0.173,1.443-0.173
			c0.174,0,0.232,0,0.463,0v1.097c-0.348-0.057-0.463-0.057-0.693-0.057c-2.08,0-3.178,1.039-3.178,2.944v4.274h-1.039v-8.028
			H88.725L88.725,33.847z"/>
		<polygon fill="#7D7D7C" points="99.467,41.875 98.369,41.875 98.369,30.21 99.467,30.21 		"/>
		<polygon fill="#7D7D7C" points="112.057,31.19 107.32,31.19 107.32,41.875 106.166,41.875 106.166,31.19 101.199,31.19 
			101.199,30.21 112.057,30.21 		"/>
		<path fill="#7D7D7C" d="M118.813,40.895V31.19h3.695c1.561,0,2.428,0.117,3.178,0.348c1.559,0.461,2.541,2.251,2.541,4.563
			c0,1.559-0.404,2.83-1.27,3.696c-0.809,0.864-1.85,1.098-4.449,1.098H118.813L118.813,40.895z M117.715,41.875h5.371
			c1.502,0,2.484-0.115,3.293-0.404c1.848-0.635,3.119-2.831,3.119-5.428c0-1.732-0.578-3.351-1.619-4.39
			c-0.98-1.039-2.367-1.443-4.793-1.443h-5.371V41.875L117.715,41.875z"/>
		<path fill="#7D7D7C" d="M139.834,37.833c0,2.077-1.385,3.407-3.695,3.407s-3.697-1.271-3.697-3.349
			c0-2.081,1.387-3.409,3.697-3.409S139.834,35.753,139.834,37.833L139.834,37.833z M141.105,37.833
			c0-2.599-1.965-4.332-4.967-4.332c-3.004,0-4.967,1.733-4.967,4.332c0,2.655,1.963,4.331,4.967,4.331
			C139.141,42.221,141.105,40.488,141.105,37.833L141.105,37.833z"/>
		<path fill="#7D7D7C" d="M151.039,41.875v-4.101c0-1.386-0.172-2.021-0.75-2.483c-0.578-0.463-1.387-0.693-2.543-0.693
			c-1.27,0-2.311,0.346-2.945,0.982c-0.461,0.403-0.633,0.981-0.633,1.849v4.505h-1.043v-8.087h1.043v1.097
			c0.461-0.461,0.691-0.691,1.211-0.924c0.693-0.288,1.502-0.461,2.484-0.461c1.615,0,2.887,0.52,3.58,1.445
			c0.461,0.576,0.635,1.27,0.635,2.309v4.678h-1.039V41.875z"/>
		<path fill="#7D7D7C" d="M162.07,37.14h-6.758c0.404-1.849,1.502-2.772,3.291-2.772C160.51,34.367,161.723,35.406,162.07,37.14
			L162.07,37.14z M163.396,38.063c-0.057-0.981-0.174-1.329-0.518-2.021c-0.752-1.561-2.369-2.542-4.275-2.542
			c-2.6,0-4.447,1.733-4.447,4.215c0,2.657,1.965,4.448,4.852,4.448c1.965,0,3.352-0.693,4.389-2.31l-0.865-0.636
			c-0.404,0.636-0.576,0.866-0.982,1.212c-0.693,0.521-1.559,0.81-2.598,0.81c-1.271,0-2.311-0.464-2.947-1.213
			c-0.404-0.521-0.518-0.924-0.635-1.964H163.396L163.396,38.063z"/>
		<path fill="#7D7D7C" d="M165.766,29.689h0.52c0.404,0,0.635,0.115,0.635,0.461c0,0.405-0.289,0.464-0.693,0.464h-0.52v-0.925
			H165.766z M165.361,32.347h0.404v-1.33h0.461l0.811,1.33h0.463l-0.811-1.33c0.348-0.057,0.693-0.287,0.693-0.866
			c0-0.576-0.346-0.866-0.982-0.866h-1.098v3.063H165.361z M163.803,30.786c0,1.445,1.098,2.6,2.482,2.6
			c1.387,0,2.482-1.154,2.482-2.6c0-1.442-1.096-2.599-2.482-2.599C164.9,28.244,163.803,29.344,163.803,30.786L163.803,30.786z
			 M164.207,30.786c0-1.212,0.924-2.194,2.078-2.194c1.098,0,2.08,0.982,2.08,2.194c0,1.213-0.924,2.194-2.08,2.194
			C165.131,32.98,164.207,31.999,164.207,30.786L164.207,30.786z"/>
	</g>
	<g>
		<path fill="#016051" d="M1.98,4.683c0-0.982,0.809-1.733,1.733-1.733h22.119v5.948H10.124v2.888h15.247
			c0.981,0,1.732,0.751,1.732,1.733v9.587c0,0.98-0.809,1.732-1.732,1.732H2.039v-5.256h17.499V17.33H3.713
			c-0.982,0-1.733-0.75-1.733-1.732V4.683L1.98,4.683z"/>
		<path fill="#016051" d="M53.496,14.616c0,1.56-1.271,2.83-2.83,2.83H31.954c-1.56,0-2.83-1.27-2.83-2.83V3.008h6.179v8.836h12.012
			V3.008h6.238L53.496,14.616L53.496,14.616z"/>
		<polygon fill="#016051" points="36.4,19.641 46.161,19.641 46.161,24.896 36.4,24.896 		"/>
		<path fill="#016051" d="M83.642,19.293c0,3.062-2.483,5.545-5.544,5.545c-1.559,0-2.945-0.637-3.927-1.617L63.198,10.805v14.09
			h-6.642V8.667c0-3.06,2.483-5.544,5.544-5.544c1.675,0,3.119,0.751,4.158,1.849L77.29,18.37V3.008h6.41v16.285H83.642z"/>
		<path fill="#016051" d="M102.469,6.358c0-1.848-1.5-3.35-3.348-3.35h-14.15v5.89h9.645c0.75,0,1.387,0.636,1.387,1.386v14.611
			h6.467V6.358L102.469,6.358z"/>
		<path fill="#016051" d="M104.26,6.358c0-1.848,1.502-3.35,3.35-3.35h14.15v5.89h-9.646c-0.75,0-1.387,0.636-1.387,1.386v14.611
			h-6.467V6.358L104.26,6.358z"/>
		<path fill="#016051" d="M122.799,8.898c0.115-3.291,2.771-5.89,6.064-5.89h15.59v5.89H122.799L122.799,8.898z"/>
		<path fill="#016051" d="M130.131,20.392c-0.807,0-1.5-0.693-1.5-1.501c0-0.809,0.693-1.56,1.5-1.56h14.15v-5.602h-21.656v8.663
			c0,2.426,1.963,4.389,4.389,4.389h17.268v-4.447h-14.15V20.392z"/>
		<path fill="#016051" d="M150.229,24.896c-1.385,0-2.482-1.096-2.482-2.483V2.95h6.525v15.247c0,0.866,0.693,1.56,1.561,1.56H169
			v5.082h-18.771V24.896z"/>
	</g>
	<g>
		<path fill="#DB6D26" d="M2.673,31.075c-0.231,0-0.404-0.174-0.404-0.404v-2.079c0-0.232,0.173-0.404,0.404-0.404h2.08
			c0.23,0,0.404,0.172,0.404,0.404v2.079c0,0.23-0.173,0.404-0.404,0.404H2.673L2.673,31.075z"/>
		<path fill="#DB6D26" d="M5.504,33.904c-0.231,0-0.405-0.173-0.405-0.403v-2.078c0-0.232,0.173-0.406,0.405-0.406h2.079
			c0.23,0,0.404,0.174,0.404,0.406v2.021c0,0.23-0.173,0.403-0.404,0.403H5.504V33.904z"/>
		<path fill="#DB6D26" d="M8.334,36.677c-0.231,0-0.405-0.173-0.405-0.403v-2.078c0-0.23,0.174-0.406,0.405-0.406h2.079
			c0.23,0,0.404,0.176,0.404,0.406v2.078c0,0.23-0.173,0.403-0.404,0.403H8.334L8.334,36.677z"/>
		<path fill="#DB6D26" d="M5.504,39.564c-0.231,0-0.405-0.173-0.405-0.403v-2.079c0-0.232,0.173-0.405,0.405-0.405h2.079
			c0.23,0,0.404,0.173,0.404,0.405v2.079c0,0.23-0.173,0.403-0.404,0.403H5.504L5.504,39.564z"/>
		<path fill="#DB6D26" d="M2.673,42.395c-0.231,0-0.404-0.174-0.404-0.404v-2.08c0-0.23,0.173-0.403,0.404-0.403h2.08
			c0.23,0,0.404,0.173,0.404,0.403v2.08c0,0.23-0.173,0.404-0.404,0.404H2.673L2.673,42.395z"/>
	</g>
</g>
</svg>
